<svg width="173" height="175" viewBox="0 0 173 175" fill="none" xmlns="http://www.w3.org/2000/svg">
<path d="M163.5 96C163.5 137.517 127.868 171.5 83.5 171.5C39.132 171.5 3.5 137.517 3.5 96C3.5 54.4827 39.132 20.5 83.5 20.5C127.868 20.5 163.5 54.4827 163.5 96Z" stroke="url(#paint0_radial_8_5)" stroke-width="7"/>
<rect width="18.3584" height="18.4895" transform="matrix(-0.847396 0.530962 0.59061 0.806957 157.77 35.8086)" fill="white"/>
<rect width="18.3584" height="18.4895" transform="matrix(-0.847396 0.530962 0.59061 0.806957 157.77 35.8086)" fill="#575AC2"/>
<rect width="18.3584" height="18.4895" transform="matrix(-0.847396 0.530962 0.59061 0.806957 139.102 47.5058)" fill="white"/>
<rect width="18.3584" height="18.4895" transform="matrix(-0.847396 0.530962 0.59061 0.806957 139.102 47.5058)" fill="#575AC2"/>
<rect width="18.3584" height="18.4895" transform="matrix(-0.847396 0.530962 0.59061 0.806957 157.77 35.8086)" fill="white"/>
<rect width="18.3584" height="18.4895" transform="matrix(-0.847396 0.530962 0.59061 0.806957 157.77 35.8086)" fill="#575AC2"/>
<rect width="18.3584" height="18.4895" transform="matrix(-0.847396 0.530962 0.59061 0.806957 139.102 47.5058)" fill="white"/>
<rect width="18.3584" height="18.4895" transform="matrix(-0.847396 0.530962 0.59061 0.806957 139.102 47.5058)" fill="#575AC2"/>
<rect width="18.3584" height="18.4895" transform="matrix(-0.847396 0.530962 0.59061 0.806957 120.433 59.2029)" fill="white"/>
<rect width="18.3584" height="18.4895" transform="matrix(-0.847396 0.530962 0.59061 0.806957 120.433 59.2029)" fill="#575AC2"/>
<rect width="18.3584" height="18.4895" transform="matrix(-0.847396 0.530962 0.59061 0.806957 101.765 70.9001)" fill="white"/>
<rect width="18.3584" height="18.4895" transform="matrix(-0.847396 0.530962 0.59061 0.806957 101.765 70.9001)" fill="#575AC2"/>
<rect width="18.3584" height="18.4895" transform="matrix(0.847396 -0.530962 -0.59061 -0.806957 84.0242 77.6637)" fill="white"/>
<rect width="18.3584" height="18.4895" transform="matrix(0.847396 -0.530962 -0.59061 -0.806957 84.0242 77.6637)" fill="#575AC2"/>
<rect width="18.3584" height="18.4895" transform="matrix(0.847396 -0.530962 -0.59061 -0.806957 102.692 65.9665)" fill="white"/>
<rect width="18.3584" height="18.4895" transform="matrix(0.847396 -0.530962 -0.59061 -0.806957 102.692 65.9665)" fill="#575AC2"/>
<rect width="18.3584" height="18.4895" transform="matrix(0.847396 -0.530962 -0.59061 -0.806957 121.361 54.2694)" fill="white"/>
<rect width="18.3584" height="18.4895" transform="matrix(0.847396 -0.530962 -0.59061 -0.806957 121.361 54.2694)" fill="#575AC2"/>
<rect width="18.3584" height="18.4895" transform="matrix(0.847396 -0.530962 -0.59061 -0.806957 140.029 42.5722)" fill="white"/>
<rect width="18.3584" height="18.4895" transform="matrix(0.847396 -0.530962 -0.59061 -0.806957 140.029 42.5722)" fill="#575AC2"/>
<rect width="18.3584" height="18.4895" transform="matrix(0.847396 -0.530962 -0.59061 -0.806957 70.9201 59.7594)" fill="white"/>
<rect width="18.3584" height="18.4895" transform="matrix(0.847396 -0.530962 -0.59061 -0.806957 70.9201 59.7594)" fill="#575AC2"/>
<rect width="18.3584" height="18.4895" transform="matrix(0.847396 -0.530962 -0.59061 -0.806957 89.5883 48.0622)" fill="white"/>
<rect width="18.3584" height="18.4895" transform="matrix(0.847396 -0.530962 -0.59061 -0.806957 89.5883 48.0622)" fill="#575AC2"/>
<rect width="18.3584" height="18.4895" transform="matrix(0.847396 -0.530962 -0.59061 -0.806957 70.9201 59.7594)" fill="white"/>
<rect width="18.3584" height="18.4895" transform="matrix(0.847396 -0.530962 -0.59061 -0.806957 70.9201 59.7594)" fill="#575AC2"/>
<rect width="18.3584" height="18.4895" transform="matrix(0.847396 -0.530962 -0.59061 -0.806957 89.5883 48.0622)" fill="white"/>
<rect width="18.3584" height="18.4895" transform="matrix(0.847396 -0.530962 -0.59061 -0.806957 89.5883 48.0622)" fill="#575AC2"/>
<rect width="18.3584" height="18.4895" transform="matrix(0.847396 -0.530962 -0.59061 -0.806957 108.257 36.3651)" fill="white"/>
<rect width="18.3584" height="18.4895" transform="matrix(0.847396 -0.530962 -0.59061 -0.806957 108.257 36.3651)" fill="#575AC2"/>
<rect width="18.3584" height="18.4895" transform="matrix(0.847396 -0.530962 -0.59061 -0.806957 126.925 24.6679)" fill="white"/>
<rect width="18.3584" height="18.4895" transform="matrix(0.847396 -0.530962 -0.59061 -0.806957 126.925 24.6679)" fill="#575AC2"/>
<line x1="101.197" y1="99.733" x2="172.197" y2="54.733" stroke="#363899" stroke-width="3"/>
<defs>
<radialGradient id="paint0_radial_8_5" cx="0" cy="0" r="1" gradientUnits="userSpaceOnUse" gradientTransform="translate(132.5 35) rotate(55.6196) scale(46.0434 45.585)">
<stop offset="0.9999" stop-opacity="0"/>
<stop offset="1" stop-color="#363899"/>
</radialGradient>
</defs>
</svg>
