<svg width="213" height="84" viewBox="0 0 213 84" fill="none" xmlns="http://www.w3.org/2000/svg">
<path d="M18.28 6.6C15.8533 5.4 13.2533 4.8 10.48 4.8C8.98667 4.8 7.84 5.12 7.04 5.76C6.24 6.4 5.84 7.25333 5.84 8.32C5.84 10.2133 7.21333 11.5467 9.96 12.32C13.6933 13.36 16.32 14.6267 17.84 16.12C19.3867 17.6133 20.16 19.5467 20.16 21.92C20.16 24.6667 19.2533 26.7733 17.44 28.24C15.6267 29.68 13 30.4 9.56 30.4C6.06667 30.4 2.93333 29.5333 0.16 27.8L1.56 23.32C4.12 25.0533 6.82667 25.92 9.68 25.92C11.2533 25.92 12.44 25.5867 13.24 24.92C14.0667 24.2267 14.48 23.2533 14.48 22C14.48 20.8533 14.1467 19.9467 13.48 19.28C12.84 18.6133 11.6667 18.0267 9.96 17.52C6.54667 16.5333 4.06667 15.2933 2.52 13.8C1 12.3067 0.24 10.48 0.24 8.32C0.24 5.92 1.12 4 2.88 2.56C4.66667 1.12 7.16 0.4 10.36 0.4C13.6667 0.4 16.6933 1.02667 19.44 2.28L18.28 6.6ZM27.2653 4.48C29.932 1.76 33.4786 0.4 37.9053 0.4C42.332 0.4 45.8653 1.76 48.5053 4.48C51.172 7.17333 52.5053 10.8133 52.5053 15.4C52.5053 19.9867 51.172 23.64 48.5053 26.36C45.8653 29.0533 42.332 30.4 37.9053 30.4C33.4786 30.4 29.932 29.0533 27.2653 26.36C24.6253 23.64 23.3053 19.9867 23.3053 15.4C23.3053 10.8133 24.6253 7.17333 27.2653 4.48ZM31.4253 23.08C33.0253 24.8933 35.1853 25.8 37.9053 25.8C40.6253 25.8 42.7853 24.8933 44.3853 23.08C45.9853 21.24 46.7853 18.68 46.7853 15.4C46.7853 12.12 45.9853 9.57333 44.3853 7.76C42.7853 5.92 40.6253 5 37.9053 5C35.1853 5 33.0253 5.92 31.4253 7.76C29.8253 9.57333 29.0253 12.12 29.0253 15.4C29.0253 18.68 29.8253 21.24 31.4253 23.08ZM57.0194 30V0.799999H62.4994L74.5394 20.68H74.6194V0.799999H80.0994V30H74.6194L62.5794 10.12H62.4994V30H57.0194ZM84.4334 30L94.5534 0.799999H100.553L110.713 30H104.713L102.633 22.96H92.3534L90.2334 30H84.4334ZM93.5934 18.68H101.353L97.5134 5.72H97.4334L93.5934 18.68ZM132.013 0.799999V5.44H123.653V30H117.973V5.44H109.613V0.799999H132.013ZM142.932 5.32V12.48H154.652V16.76H142.932V25.48H155.452V30H137.332V0.799999H155.452V5.32H142.932ZM174.765 4.92C171.751 4.92 169.351 5.86667 167.565 7.76C165.778 9.62667 164.885 12.1733 164.885 15.4C164.885 18.6 165.805 21.1467 167.645 23.04C169.485 24.9333 171.858 25.88 174.765 25.88C177.191 25.88 179.565 25.1467 181.885 23.68L183.565 27.8C180.871 29.5333 177.765 30.4 174.245 30.4C169.685 30.4 166.031 29.0533 163.285 26.36C160.538 23.64 159.165 19.9867 159.165 15.4C159.165 10.7867 160.511 7.13333 163.205 4.44C165.898 1.74667 169.578 0.4 174.245 0.4C177.765 0.4 180.871 1.26667 183.565 3L181.885 7.12C179.565 5.65333 177.191 4.92 174.765 4.92ZM206.57 16.76H194.69V30H189.09V0.799999H194.69V12.48H206.57V0.799999H212.17V30H206.57V16.76Z" fill="url(#paint0_linear_0_1)"/>
<path d="M0.363281 81.8672V78C0.80599 78.3906 1.33333 78.7422 1.94531 79.0547C2.57031 79.3672 3.22135 79.6341 3.89844 79.8555C4.58854 80.0638 5.27865 80.2266 5.96875 80.3438C6.65885 80.4609 7.29688 80.5195 7.88281 80.5195C9.90104 80.5195 11.4049 80.1484 12.3945 79.4062C13.3971 78.651 13.8984 77.5703 13.8984 76.1641C13.8984 75.4089 13.7292 74.7513 13.3906 74.1914C13.0651 73.6315 12.6094 73.1237 12.0234 72.668C11.4375 72.1992 10.7409 71.7565 9.93359 71.3398C9.13932 70.9102 8.27995 70.4609 7.35547 69.9922C6.37891 69.4974 5.46745 68.9961 4.62109 68.4883C3.77474 67.9805 3.03906 67.4206 2.41406 66.8086C1.78906 66.1966 1.29427 65.5065 0.929688 64.7383C0.578125 63.957 0.402344 63.0456 0.402344 62.0039C0.402344 60.7279 0.682292 59.6211 1.24219 58.6836C1.80208 57.7331 2.53776 56.9518 3.44922 56.3398C4.36068 55.7279 5.39583 55.2721 6.55469 54.9727C7.72656 54.6732 8.91797 54.5234 10.1289 54.5234C12.8893 54.5234 14.901 54.8555 16.1641 55.5195V59.2109C14.5104 58.0651 12.388 57.4922 9.79688 57.4922C9.08073 57.4922 8.36458 57.5703 7.64844 57.7266C6.93229 57.8698 6.29427 58.1107 5.73438 58.4492C5.17448 58.7878 4.71875 59.224 4.36719 59.7578C4.01562 60.2917 3.83984 60.9427 3.83984 61.7109C3.83984 62.4271 3.97005 63.0456 4.23047 63.5664C4.50391 64.0872 4.90104 64.5625 5.42188 64.9922C5.94271 65.4219 6.57422 65.8385 7.31641 66.2422C8.07161 66.6458 8.9375 67.0885 9.91406 67.5703C10.9167 68.0651 11.8672 68.5859 12.7656 69.1328C13.6641 69.6797 14.4518 70.2852 15.1289 70.9492C15.806 71.6133 16.3398 72.349 16.7305 73.1562C17.1341 73.9635 17.3359 74.888 17.3359 75.9297C17.3359 77.3099 17.0625 78.4818 16.5156 79.4453C15.9818 80.3958 15.2526 81.1706 14.3281 81.7695C13.4167 82.3685 12.362 82.7982 11.1641 83.0586C9.96615 83.332 8.70312 83.4688 7.375 83.4688C6.93229 83.4688 6.38542 83.4297 5.73438 83.3516C5.08333 83.2865 4.41927 83.1823 3.74219 83.0391C3.0651 82.9089 2.42057 82.7461 1.80859 82.5508C1.20964 82.3424 0.727865 82.1146 0.363281 81.8672ZM39.4844 57.9609H31.3984V83H28.1172V57.9609H20.0508V54.9922H39.4844V57.9609ZM64.3867 71.6719C64.3867 79.5365 60.8385 83.4688 53.7422 83.4688C46.9453 83.4688 43.5469 79.6862 43.5469 72.1211V54.9922H46.8281V71.9062C46.8281 77.6484 49.25 80.5195 54.0938 80.5195C58.7682 80.5195 61.1055 77.7461 61.1055 72.1992V54.9922H64.3867V71.6719ZM71.3984 83V54.9922H79.1328C89.0026 54.9922 93.9375 59.543 93.9375 68.6445C93.9375 72.9674 92.5638 76.444 89.8164 79.0742C87.082 81.6914 83.4167 83 78.8203 83H71.3984ZM74.6797 57.9609V80.0312H78.8594C82.5312 80.0312 85.3893 79.0482 87.4336 77.082C89.4779 75.1159 90.5 72.3294 90.5 68.7227C90.5 61.5482 86.6849 57.9609 79.0547 57.9609H74.6797ZM102.727 83H99.4453V54.9922H102.727V83ZM121.398 83.4688C117.427 83.4688 114.243 82.1602 111.848 79.543C109.465 76.9258 108.273 73.5208 108.273 69.3281C108.273 64.8229 109.491 61.2292 111.926 58.5469C114.361 55.8646 117.674 54.5234 121.867 54.5234C125.734 54.5234 128.846 55.8255 131.203 58.4297C133.573 61.0339 134.758 64.4388 134.758 68.6445C134.758 73.2148 133.547 76.8281 131.125 79.4844C128.703 82.1406 125.461 83.4688 121.398 83.4688ZM121.633 57.4922C118.69 57.4922 116.301 58.5534 114.465 60.6758C112.629 62.7982 111.711 65.5846 111.711 69.0352C111.711 72.4857 112.603 75.2656 114.387 77.375C116.184 79.4714 118.521 80.5195 121.398 80.5195C124.471 80.5195 126.893 79.5169 128.664 77.5117C130.435 75.5065 131.32 72.7005 131.32 69.0938C131.32 65.3958 130.461 62.5378 128.742 60.5195C127.023 58.5013 124.654 57.4922 121.633 57.4922Z" fill="url(#paint1_linear_0_1)"/>
<defs>
<linearGradient id="paint0_linear_0_1" x1="114" y1="-15" x2="114" y2="91" gradientUnits="userSpaceOnUse">
<stop stop-color="#5A5DFF"/>
<stop offset="0.435" stop-color="#363899"/>
</linearGradient>
<linearGradient id="paint1_linear_0_1" x1="114" y1="-15" x2="114" y2="91" gradientUnits="userSpaceOnUse">
<stop offset="0.48" stop-color="white"/>
<stop offset="1"/>
</linearGradient>
</defs>
</svg>
